<?xml version="1.0" encoding="UTF-8"?>
<svg id="Layer_2" data-name="Layer 2" xmlns="http://www.w3.org/2000/svg" viewBox="0 0 130.04 127.54">
  <defs>
    <style>
      .cls-1 {
        fill: #47ec9a;
      }
    </style>
  </defs>
  <g id="Layer_1-2" data-name="Layer 1">
    <g>
      <path class="cls-1" d="m.21,0C.14.07.07.14,0,.21c.07-.07.14-.14.21-.21Z"/>
      <path class="cls-1" d="m0,127.33c.07.07.14.14.21.21-.07-.07-.14-.14-.21-.21Z"/>
      <path class="cls-1" d="m129.83,127.54l.21-.21-.21.21Z"/>
      <g>
        <path class="cls-1" d="m22.26,101.33c-.34-1-.74-1.99-1.01-3.01-.17-.61-.22-1.27-.22-1.91,0-.88.13-1.77.13-2.65,0-19.62,0-39.24.02-58.86,0-1.51.18-3.01.28-4.52.27-.06.53-.16.8-.17.66-.03.64-.48.63-.94,0-.48.1-1.02-.67-.98.03-.13.05-.27.08-.4.83.02,1.71.17,1.75-1.11,0-.25.33-.51.53-.75.38-.47.76-.93,1.14-1.4l-.19-.2c.4-.05.8-.1,1.16-.15.27-.72.52-1.37.77-2.03.28-.2.56-.41.84-.61.23.21.48.62.68.6.72-.07,1.43-.29,2.13-.45.12-.43.21-.79.31-1.15,1.1-.17,2.19-.48,3.29-.48,20.49-.03,40.98-.03,61.47,0,1.02,0,2.04.18,3.06.27l.44.15-.02.07c.07.23.07.52.22.66.24.23.56.48.87.53.41.06,1.02.23,1-.57l.42.22c-.03.74-.11,1.45,1.01,1.51.37.02.69.59,1.06.88.23.19.49.45.75.46.53.03.7.22.75.74.03.26.38.7.57.7.82-.03.91.41.86,1.04-.02.27-.06.59.05.82.39.82.85,1.62,1.35,2.55h.85c.17,1.79.48,3.58.48,5.37.03,19.45.02,38.9.02,58.35,0,2.52-.21,5.01-1.31,7.33-1.45,3.04-3.75,5.19-6.81,6.59-2,.91-4.1,1.07-6.25,1.07-20.11,0-40.22-.05-60.32.04-2.9.01-5.51-.54-7.95-2.02-.2-.12-.39-.24-.59-.37-1.86-1.35-3.07-3.25-4.4-5.06,0-.05,0-.09,0-.14Zm69.06-56.59c1.02-.09.73-.78.48-1.26-.81-1.54-2.07-2.08-3.93-1.74-.02.28-.04.58-.06.87-.21,0-.42,0-.62,0-.17-.33-.37-.95-.5-.94-.79.09-1.62.22-2.32.57-.21.1-.05.95-.06,1.46-.54.63-1.07,1.29-1.63,1.9-3.01,3.24-6.03,6.48-9.07,9.71-1.61,1.71-3.25,3.38-4.88,5.07-.54.56-1.1,1.11-1.64,1.68-1.21,1.3-2.41,2.6-3.61,3.91-.52-.58-1.29-.63-1.64.05-.31.59-.3,1.36-.43,2.05-.27.34-.55.68-.82,1.02-.43-.03-.89-.18-1.29-.08-1.04.25-1.25.77-1.22,2.6-.35.41-.7.82-1.05,1.24-.36-.13-.81-.46-1.05-.35-.41.19-.8.61-.97,1.03-.17.41-.04.94-.05,1.41-.14.14-.28.28-.42.42-.01-.48.12-1.04-.08-1.43-.2-.38-.71-.65-1.14-.84-.12-.05-.44.38-.67.59l-1.46-1.66c0-.51.1-1.05-.03-1.52-.1-.36-.45-.84-.77-.91-.38-.09-.84.21-1.27.34-.42-.48-.84-.96-1.25-1.45,0-.51.13-1.07-.04-1.52-.17-.45-.57-1-.98-1.14-.42-.14-1.16-.43-1.47.37-1.32-.44-2.63-.73-3.96-.03-.2.13-.41.25-.61.38-.41.46-.98.85-1.2,1.39-.36.91-.78,1.95-.66,2.86.12.93.71,1.92,1.37,2.64,2.69,2.95,5.48,5.81,8.22,8.71.23.24.39.56.63.79.95.89,1.91,1.76,2.87,2.63.21.13.42.25.63.38.23.14.44.32.68.41,1.59.58,2.91-.03,4.02-1.08,1.34-1.28,2.58-2.67,3.86-4.03,2.12-2.25,4.23-4.52,6.36-6.77,2.91-3.08,5.84-6.14,8.76-9.21.3-.31.58-.65.87-.97,1.92.5,2.09.37,2.08-1.58,0-.17,0-.35,0-.52.48-.49.97-.98,1.45-1.47.32.13.71.44.94.35.37-.16.78-.53.9-.9.15-.46.04-1.01.04-1.51.41-.42.83-.84,1.24-1.26,1.35.61,1.88.32,1.89-1.04,0-.34,0-.69,0-1.03l1.26-1.44c.38.65.96.51,1.41.22.31-.2.55-.63.64-1,.11-.41.02-.88.02-1.32.35-.41.7-.82,1.05-1.22.33.07.67.14,1,.21,1.03.21.95-.72,1.12-1.23.09-.27-.31-.71-.5-1.07.01-1.26.29-2.54-.39-3.72Z"/>
        <path class="cls-1" d="m109.41,30.17h-.85c-.5-.93-.95-1.73-1.35-2.55-.11-.23-.07-.54-.05-.82.04-.63-.04-1.07-.86-1.04-.19,0-.55-.44-.57-.7-.05-.52-.22-.71-.75-.74-.26-.01-.52-.28-.75-.46-.36-.29-.69-.86-1.06-.88-1.13-.06-1.04-.77-1.01-1.51,1.99.63,3.38,2.08,4.7,3.57,1.3,1.46,2.12,3.22,2.54,5.14Z"/>
        <path class="cls-1" d="m27.46,22.24c-.25.65-.5,1.31-.77,2.03-.36.05-.76.1-1.16.15l.19.2c-.38.46-.77.93-1.14,1.4-.19.24-.52.49-.53.75-.04,1.29-.92,1.14-1.75,1.11,1.11-2.22,2.54-4.15,4.69-5.47.14-.09.31-.11.47-.17Z"/>
        <path class="cls-1" d="m31.42,20.63c-.1.36-.2.72-.31,1.15-.7.16-1.41.38-2.13.45-.21.02-.45-.39-.68-.6,1.04-.33,2.08-.66,3.12-.99Z"/>
        <path class="cls-1" d="m22.22,28.28c.76-.04.66.51.67.98,0,.46.04.91-.63.94-.27.01-.53.11-.8.17.25-.7.5-1.4.76-2.1Z"/>
        <path class="cls-1" d="m101.75,21.25c.02.8-.59.63-1,.57-.31-.05-.63-.29-.87-.53-.15-.15-.15-.44-.22-.66.7.21,1.39.41,2.09.62Z"/>
        <path class="cls-1" d="m26.67,106.53c.2.12.39.24.59.37-.2-.12-.39-.24-.59-.37Z"/>
        <path class="cls-1" d="m99.68,20.56l-.44-.15c.15.05.29.1.44.15Z"/>
        <path class="cls-1" d="m22.26,101.33s0,.09,0,.14c-.06-.01-.11-.03-.17-.04.06-.03.11-.07.17-.1Z"/>
        <path class="cls-1" d="m91.32,44.74c-.41-.44-.82-.87-1.23-1.31-.14-.05-.28-.1-.43-.15l-1.86-.66c.02-.3.04-.6.06-.87,1.86-.34,3.12.2,3.93,1.74.25.48.55,1.17-.48,1.26Z"/>
        <path class="cls-1" d="m87.18,42.62c-.96.36-1.92.72-2.89,1.09,0-.51-.15-1.35.06-1.46.7-.35,1.53-.48,2.32-.57.13-.01.33.61.5.94Z"/>
        <path class="cls-1" d="m47.85,68.48c-.83-.76-1.66-1.53-2.5-2.29.31-.8,1.05-.51,1.47-.37.42.14.82.68.98,1.14.17.45.04,1.01.04,1.52Z"/>
        <path class="cls-1" d="m60.57,69.09c-.84.84-1.67,1.68-2.51,2.52-.03-1.82.19-2.35,1.22-2.6.4-.1.86.05,1.29.08Z"/>
        <path class="cls-1" d="m51.18,72.02c-.69-.7-1.38-1.39-2.08-2.09.43-.13.89-.42,1.27-.34.32.07.67.55.77.91.13.47.03,1.01.03,1.52Z"/>
        <path class="cls-1" d="m86.97,53.88c.69-.7,1.38-1.4,2.07-2.1,0,.44.09.91-.02,1.32-.1.37-.34.8-.64,1-.45.29-1.03.43-1.41-.22Z"/>
        <path class="cls-1" d="m57.02,72.84c-.69.7-1.38,1.4-2.08,2.09,0-.48-.12-1,.05-1.41.17-.42.57-.84.97-1.03.25-.11.7.22,1.05.35Z"/>
        <path class="cls-1" d="m90.09,50.56c.54-.7,1.08-1.4,1.62-2.09.18.36.59.8.5,1.07-.17.51-.09,1.44-1.12,1.23-.33-.07-.67-.14-1-.21Z"/>
        <path class="cls-1" d="m63.47,65.97c-.69.7-1.38,1.4-2.08,2.09.13-.69.12-1.45.43-2.05.36-.68,1.12-.63,1.64-.05Z"/>
        <path class="cls-1" d="m54.52,75.35c-.63-.56-1.26-1.12-1.89-1.68.23-.21.56-.64.67-.59.43.19.94.45,1.14.84.2.39.07.95.08,1.43Z"/>
        <path class="cls-1" d="m80.72,60.72c.63-.69,1.25-1.38,1.88-2.07,0,.51.12,1.06-.04,1.51-.13.37-.53.74-.9.9-.22.09-.62-.22-.94-.35Z"/>
        <path class="cls-1" d="m77.19,64.29c.69-.7,1.38-1.4,2.08-2.1,0,.17,0,.35,0,.52,0,1.96-.16,2.09-2.08,1.58Z"/>
        <path class="cls-1" d="m83.83,57.38l1.88-2.06c0,.34,0,.69,0,1.03,0,1.36-.54,1.65-1.89,1.04Z"/>
        <path class="cls-1" d="m52.02,85.55c.21.13.42.25.63.38-.21-.13-.42-.25-.63-.38Z"/>
        <path class="cls-1" d="m41.39,66.16l-.61.38.61-.38Z"/>
        <path class="cls-1" d="m89.67,43.28c.14.05.28.1.43.15-.14-.05-.28-.1-.43-.15Z"/>
      </g>
    </g>
  </g>
</svg>