<?xml version="1.0" encoding="UTF-8"?>
<svg id="Layer_2" data-name="Layer 2" xmlns="http://www.w3.org/2000/svg" viewBox="0 0 109.67 129.87">
  <defs>
    <style>
      .cls-1 {
        fill: #e5bb3d;
      }
    </style>
  </defs>
  <g id="Layer_1-2" data-name="Layer 1">
    <g>
      <path class="cls-1" d="m.18,0C.12.06.06.12,0,.18c.06-.06.12-.12.18-.18Z"/>
      <path class="cls-1" d="m0,129.69c.06.06.12.12.18.18-.06-.06-.12-.12-.18-.18Z"/>
      <g>
        <path class="cls-1" d="m109.49,129.87l.18-.18-.18.18Z"/>
        <path class="cls-1" d="m20.89,113.33c-.18,0-.35-.02-.53-.02-.07,0-.14,0-.21,0-.47-.13-.95-.27-1.42-.4-.13-.05-.25-.1-.38-.14-2.5-1.21-4.67-2.88-6.23-5.16-.87-1.28-1.37-2.82-2.04-4.24-.03-.07-.11-.12-.17-.18-.05-.05-.1-.09-.14-.14.13-.76.15-1.5-.27-1.87-.15-5.45,1.72-9.84,5.97-13.08.07-.05.14-.1.21-.14,1.45-.73,2.91-1.47,4.36-2.2.17-.05.34-.1.51-.15.16.04.34.14.49.1,2.58-.73,5.11-.35,7.63.33,2.11.57,3.9,1.7,5.49,3.15.53.49,1.15.95,1.5,1.56.49.84,1.11.99,2.01.99,18.62-.03,37.24-.02,55.86-.02,1.13,0,2.13.12,2.93,1.18,1.06,1.43,2.33,2.71,3.5,4.05.11.11.21.21.32.32.35.37.72.72,1.05,1.1.47.53.44,1.49-.04,2.14-.27.36-.54.72-.82,1.08-.05.05-.1.09-.15.14-1.22,1.44-2.43,2.88-3.65,4.32-.69.82-1.41,1.36-2.65,1.36-18.99-.05-37.97-.04-56.96-.02-.34,0-.8.22-1.01.49-1.85,2.39-4.16,4.13-7.01,5.13-2.49.87-5.04,1.07-7.64.64-.11-.02-.21-.11-.31-.17-.06-.05-.12-.1-.18-.15Zm7.02-15.52c.06-.12.12-.24.17-.36.49-1.06.22-2.73-.57-3.55-1.17-1.21-2.65-1.39-4.22-1.31-2.8.14-4.38,2.04-4.11,4.83h2.18c.09-.29.19-.54.24-.79.34-1.89,2.09-2.25,3.43-1.59.82.4.87,1.2.67,1.89-.12.42-.63.89-1.05,1.02-.72.21-1.51.17-2.27.23v2.02c.96.18,1.87.29,2.73.53.37.1.81.41.97.75.54,1.1.09,2.19-1.02,2.7-1.36.63-2.8.35-3.32-.71-.28-.58-.43-1.23-.63-1.82h-2.39c.02,1.35.27,2.56,1.19,3.57,1.53,1.69,3.49,1.69,5.46,1.24,3.51-.81,4.59-4.61,2.1-7.18-.1-.1-.19-.22-.27-.31.26-.41.49-.77.72-1.14Z"/>
        <path class="cls-1" d="m10.8,61.94c.8-1.94,2.07-3.57,3.63-4.92,1.77-1.52,3.8-2.62,6.13-3.11,2.01-.42,4.02-.55,6.05-.22.26.04.51.2.76.31.12,0,.24,0,.36.01,1.08.27,2.16.54,3.24.8.13.16.25.32.38.48.78.58,1.6,1.11,2.33,1.74.78.68,1.57,1.38,2.17,2.21.43.59.86.69,1.49.69,15.24,0,30.49,0,45.73-.03,1.53,0,2.59.42,3.53,1.71,1.32,1.81,2.88,3.46,4.37,5.15.49.56.72,1.1.2,1.72-1.84,2.17-3.69,4.33-5.57,6.46-.27.31-.78.43-1.21.57-.28.09-.59.03-.89.03-15.39,0-30.79,0-46.18-.01-.65,0-1.03.19-1.47.72-1.91,2.3-4.21,4.05-7.11,5.04-1.52.52-3.02.6-4.58.69-4.34.25-7.84-1.51-10.71-4.56-1.06-1.13-1.76-2.59-2.63-3.9-.05-.07-.09-.13-.14-.2-.07-.08-.14-.15-.22-.23,0-.11,0-.22,0-.33-.64-1.71-.94-3.46-.92-5.3.02-1.66.38-3.21.91-4.76.12-.25.24-.5.36-.76Zm17.65,1.64c-.05-.06-.1-.12-.15-.18-.59-1.72-1.89-2.45-3.59-2.78-2.06-.4-4.36.53-5.32,2.54-.22.47-.51.91-.78,1.39.13.36.28.78.43,1.2.48,0,.93-.02,1.37,0,.68.05.98-.36,1-.92.05-1.41,1.29-1.77,2.13-2.48.06-.05.24-.02.34.03.45.25.92.48,1.34.79.28.21.64.5.69.8.21,1.23-.13,2.21-1.31,2.91-1.4.83-2.75,1.75-4.04,2.73-1.53,1.16-2.05,2.8-1.99,4.72h9.92v-2.35h-6.95c.89-1.22,2.04-1.85,3.21-2.46,2.36-1.23,4.25-2.76,3.72-5.83,0-.03,0-.06-.01-.09Z"/>
        <path class="cls-1" d="m10.31,41.25c-.2-.99-.45-1.98-.6-2.98-.34-2.29-.27-4.56.49-6.79.81-2.38,2.19-4.38,3.98-6.12.33-.32.73-.58,1.1-.87.07-.05.14-.09.21-.14,1.65-1.28,3.57-1.99,5.58-2.35,1.21-.22,2.5-.02,3.71-.24,1.35-.25,2.55.46,3.84.39.05,0,.1,0,.15,0,.98.54,1.98,1.06,2.94,1.62,1.65.97,3.1,2.18,4.12,3.82.31.5.72.5,1.21.5,12.3,0,24.61.05,36.91-.06,1.81-.02,2.51,1.04,3.42,2.09,1.32,1.52,2.58,3.08,3.9,4.59.86.98.9,1.4.04,2.41-1.67,1.96-3.33,3.93-4.99,5.89-.41.48-.86.75-1.58.75-12.51-.03-25.02-.02-37.53-.03-.55,0-.93.08-1.35.59-1.9,2.34-4.19,4.18-7.15,5.07-2.45.74-4.91,1.11-7.45.64-.03-.07-.06-.14-.09-.21-.03.07-.06.14-.09.21-1.75-.63-3.53-1.15-5.1-2.25-2-1.41-3.64-3.12-4.81-5.27-.05-.06-.09-.13-.14-.19-.19-.32-.38-.63-.58-.95-.04-.04-.09-.09-.13-.13Zm13.1,1.76c.72,0,1.44,0,2.16,0,.05-.05.1-.09.15-.14v-13.66h-2.09c-.36,2.05-2.05,2.24-3.64,2.61,0,.38.04.77,0,1.15-.09.74.23.95.93.9.76-.05,1.53-.01,2.36-.01v9.01s.1.09.14.14Z"/>
        <path class="cls-1" d="m10.8,61.94c-.12.25-.24.5-.36.76-.33-.47-.29-.75.36-.76Z"/>
        <path class="cls-1" d="m31.35,55.29c-.13-.16-.25-.32-.38-.48.13.16.25.32.38.48Z"/>
        <path class="cls-1" d="m100.26,97.27c-.11-.11-.21-.21-.32-.32.11.11.21.21.32.32Z"/>
        <path class="cls-1" d="m20.53,85.59c-.17.05-.34.1-.51.15.17-.05.34-.1.51-.15Z"/>
        <path class="cls-1" d="m27.73,54.01c-.12,0-.24,0-.36-.01.06-.08.12-.16.19-.25.06.09.12.17.18.26Z"/>
        <path class="cls-1" d="m18.35,112.76c.13.05.25.1.38.14-.13-.05-.25-.1-.38-.14Z"/>
        <path class="cls-1" d="m10.44,72.75c0,.11,0,.22,0,.33,0-.11,0-.22,0-.33Z"/>
        <path class="cls-1" d="m21.07,50.04c.03-.07.06-.14.09-.21.03.07.06.14.09.21-.06,0-.12,0-.18,0Z"/>
        <path class="cls-1" d="m10.66,73.31c.05.07.09.13.14.2-.05-.07-.09-.13-.14-.2Z"/>
        <path class="cls-1" d="m15.66,87.94c-.07.05-.14.1-.21.14.07-.05.14-.1.21-.14Z"/>
        <path class="cls-1" d="m11.02,42.33c.05.06.09.13.14.19-.05-.06-.09-.13-.14-.19Z"/>
        <path class="cls-1" d="m10.31,41.25s.09.09.13.13c-.04-.04-.09-.09-.13-.13Z"/>
        <path class="cls-1" d="m15.48,24.36c-.07.05-.14.09-.21.14.07-.05.14-.09.21-.14Z"/>
        <path class="cls-1" d="m100.31,101.72c.05-.05.1-.09.15-.14-.05.05-.1.09-.15.14Z"/>
        <path class="cls-1" d="m9.76,103.03s.1.09.14.14c-.05-.05-.1-.09-.14-.14Z"/>
        <path class="cls-1" d="m28.77,22.16s-.1,0-.15,0c.04-.04.09-.09.13-.13,0,.04.01.09.02.13Z"/>
        <path class="cls-1" d="m20.15,113.3c.07,0,.14,0,.21,0-.02.04-.05.09-.07.13-.05-.04-.09-.09-.14-.13Z"/>
        <path class="cls-1" d="m20.89,113.33c.06.05.12.1.18.15-.06-.05-.12-.1-.18-.15Z"/>
        <path class="cls-1" d="m27.91,97.81c-.05-.09-.11-.18-.16-.27.11-.03.22-.06.33-.1-.06.12-.12.24-.17.36Z"/>
        <path class="cls-1" d="m28.45,63.59c-.05-.06-.1-.12-.15-.18.05.06.1.12.15.18Z"/>
        <path class="cls-1" d="m25.57,43.01s.1-.09.15-.14c-.05.05-.1.09-.15.14Z"/>
        <path class="cls-1" d="m23.27,42.87s.1.09.14.14c-.05-.05-.1-.09-.14-.14Z"/>
      </g>
    </g>
  </g>
</svg>