<?xml version="1.0" encoding="UTF-8"?>
<svg id="Layer_2" data-name="Layer 2" xmlns="http://www.w3.org/2000/svg" viewBox="0 0 112.47 106.52">
  <defs>
    <style>
      .cls-1 {
        fill: #e15181;
      }
    </style>
  </defs>
  <g id="Layer_1-2" data-name="Layer 1">
    <g>
      <g>
        <path class="cls-1" d="m6.3,68.46c.08-.94.16-1.89.23-2.83.03-.37,0-.75,0-1.13-.14-.14-.29-.27-.43-.41.08-1.25.16-2.5.24-3.75.42-.8-.24-.57-.59-.62.13-1.25.26-2.5.39-3.75.4-.54.06-.61-.39-.62.06-1.32.11-2.63.17-3.95l-.37-.42c.06-.9.12-1.8.17-2.7.02-.41,0-.83-.01-1.24l-.36-.42c.06-.9.12-1.8.17-2.7.02-.41,0-.83-.01-1.24l-.36-.42c.06-1.12.08-2.25.23-3.35.03-.23.54-.47.87-.57.32-.1.69-.03,1.03-.03,24.05,0,48.1,0,72.15,0,1.91,0,1.68.46,1.85,1.79.2,1.59-.36,3.08-.26,4.62.04.64.11,1.27.17,1.91-.05.14-.11.28-.16.42-.02,1.32-.03,2.63-.05,3.95-.05.14-.11.28-.16.42-.07.32-.17.64-.21.97-.16,1.36.16,2.7-.16,4.09-.33,1.45-.21,3.01-.26,4.52-.08,2.34-.12,4.68-.21,7.02-.12,2.95-.27,5.9-.41,8.85-.14,2.81-.28,5.62-.42,8.43-.15,3.16-.3,6.31-.42,9.47-.04.97.15,1.97-.04,2.9-.22,1.1-.6,2.21-1.13,3.21-1.39,2.63-3.37,4.61-6.41,5.24-.82.17-1.65.39-2.48.39-17.09.02-34.17,0-51.26.03-2.4,0-4.32-1.01-6-2.58-.57-.53-1.01-1.19-1.51-1.79-.15-.28-.29-.55-.44-.83-.87-1.22-1.32-2.6-1.42-4.08-.05-.65,0-1.31,0-1.96.4-.54.06-.61-.39-.62.06-1.25.12-2.5.18-3.75.42-.8-.24-.56-.6-.62.13-1.32.25-2.63.38-3.95-.12-.14-.25-.28-.37-.42.06-1.25.12-2.5.18-3.75.43-.8-.24-.56-.59-.62l.36-3.94c-.12-.14-.24-.28-.36-.42.06-1.32.11-2.63.17-3.95-.12-.14-.25-.28-.37-.42.06-1.32.11-2.63.17-3.95-.14-.14-.29-.27-.43-.41Zm21.86-24.79c-1.29-.62-2.51-.32-3.71.25-1.34,0-1.5.22-1.06,1.47,0,.72-.01,1.45-.01,2.17,0,14.27,0,28.54.03,42.82,0,.47.17,1.03.45,1.41.83,1.13,2.52,1.73,3.61,1.38,1.4-.45,2.56-1.96,2.56-3.51,0-7.62-.01-15.24-.03-22.86,0-6.72,0-13.45,0-20.17-.1-.43-.2-.86-.3-1.3.3-.62-.28-2.09-.92-2.17-.18-.02-.41.34-.62.52Zm29.56.25c-1.34,0-1.5.22-1.06,1.47,0,14.5-.01,29,0,43.5,0,.74.26,1.47.4,2.21.05.14.11.29.16.43.63,1.33,1.76,1.91,3.13,1.62.76-.16,1.42-.79,2.12-1.2.21-.35.41-.7.62-1.06.07-.94.2-1.87.21-2.81.01-13.39.02-26.78,0-40.17,0-.87-.21-1.74-.32-2.61.3-.62-.28-2.09-.92-2.17-.18-.02-.41.34-.62.52-1.29-.63-2.51-.32-3.71.25Zm-11.39,1.4c.3-.62-.28-2.09-.92-2.17-.18-.02-.41.34-.62.52-1.23-.51-2.42-.55-3.54.3-.06.05-.11.1-.17.15-.41.65-1.27,1.1-.91,2.08-.05.21-.1.42-.15.63,0,1.21-.02,2.42-.02,3.64,0,13.2,0,26.39,0,39.59,0,1.31.73,2.12,1.77,2.77,1.04.65,2.08.53,3.06-.05,1.29-.77,1.83-1.98,1.83-3.49-.01-13.78,0-27.57-.02-41.35,0-.87-.21-1.74-.32-2.61Z"/>
        <path class="cls-1" d="m56.4,2.31c1.35,1.2,2.45,2.6,2.93,4.36.25.92.97,1.9.05,2.87-.05.05-.05.24,0,.3.92,1,.5,2.26.64,3.5h1.04c4.91,0,9.83-.05,14.74.02,2.49.04,5.05.02,7.24,1.46.79.52,1.46,1.25,2.07,1.98,1.55,1.86,1.33,4.2,1.46,6.39.11,1.94-.09,3.91-.18,5.86-.05,1.14-1.24,2.46-2.91,2.55-.31-.19-.61-.55-.92-.56-3.69-.04-7.37-.04-11.06,0-.31,0-.61.37-.91.56-.38.01-.76.03-1.14.03-21.55,0-43.1,0-64.65-.01-.48,0-.95-.22-1.43-.33-.13-.03-.32-.11-.38-.05-.62.59-1.29.23-1.64-.18-.54-.64-1.16-1.46-1.2-2.23-.14-2.76-.23-5.56.01-8.31.12-1.35.81-2.79,1.62-3.9,1.63-2.24,4.01-3.27,6.79-3.28,5.68-.01,11.36,0,17.05,0,.34,0,.67,0,1.09,0,0-1.29.06-2.49-.01-3.69-.13-2.07.72-3.83,1.82-5.45,1.37-2.01,3.34-3.3,5.71-3.87.75-.18,1.55-.28,2.32-.28,4.33-.03,8.66-.07,12.99,0,1.96.03,3.91.33,5.62,1.47.34.23.72.4,1.08.6.06.06.11.13.17.19Zm-23.04,10.97h19.96c0-1.08.11-2.13-.02-3.14-.3-2.35-1.08-3.32-3.47-3.41-4.46-.17-8.92-.06-13.39-.04-1.28,0-3.03,1.43-3.07,2.51-.06,1.34-.01,2.69-.01,4.08Z"/>
      </g>
      <path class="cls-1" d="m112.47,61.55c-.1-.11-.19-.22-.29-.33.1.11.19.22.29.33Z"/>
    </g>
  </g>
</svg>