<?xml version="1.0" encoding="UTF-8"?>
<svg id="Layer_2" data-name="Layer 2" xmlns="http://www.w3.org/2000/svg" viewBox="0 0 119.7 141.83">
  <defs>
    <style>
      .cls-1 {
        fill: #e15181;
      }
    </style>
  </defs>
  <g id="Layer_1-2" data-name="Layer 1">
    <g>
      <path class="cls-1" d="m119.7.2c-.07-.07-.14-.14-.2-.2.07.07.14.14.2.2Z"/>
      <path class="cls-1" d="m0,141.63c.07.07.14.14.2.2-.07-.07-.14-.14-.2-.2Z"/>
      <path class="cls-1" d="m119.49,141.83c.07-.07.14-.14.2-.2-.07.07-.14.14-.2.2Z"/>
      <g>
        <path class="cls-1" d="m36.21,43.56c.22.11.44.33.66.33,12.88,0,25.77-.07,38.65-.01,2.26.01,2.76-1.26,2.83-2.9.09-2.14.02-4.29.02-6.56.42,0,.79,0,1.15,0,3.51,0,7.03-.07,10.54.01,2.55.06,5.81,1.69,5.7,5.15-.03.91.12,1.83.12,2.74,0,24.39.01,48.78,0,73.17,0,1.45-.1,2.9-.7,4.29-.72,1.67-3.01,3.41-4.81,3.41-22.4,0-44.81.03-67.21,0-2.26,0-3.66-1.54-4.72-3.38-.31-.54-.57-1.11-.87-1.73.05-.12.2-.38.23-.66.06-.5.08-1.02.08-1.53,0-24.87,0-49.73,0-74.6,0-1.3-.17-2.58.53-3.8,1.07-1.87,2.72-2.95,4.75-3.03,4.02-.16,8.04-.05,12.23-.05,0,.56,0,1.09,0,1.62,0,1.84-.04,3.69.04,5.52.03.62.4,1.22.62,1.84.06.06.11.11.17.17Zm9.82,11.9c.53-.93.13-1.59-.61-2.16-.67-.52-1.83-.33-2.55.32-2.74,2.5-5.47,5.02-8.17,7.58-.55.52-.86.45-1.32-.05-1.09-1.21-2.2-2.4-3.34-3.55-.73-.74-2.09-.7-2.82,0-.83.78-.92,1.93-.12,2.77,1.86,1.98,3.75,3.93,5.65,5.86.75.75,1.66.69,2.48-.07,1.27-1.17,2.54-2.34,3.79-3.53,2.34-2.24,4.67-4.5,7-6.75l.32-.16c-.11-.08-.22-.17-.32-.25Zm.04,21.08l.4-.07s0-.07-.01-.11c-.13-.01-.26-.02-.39-.03-.04-.35.03-.77-.15-1.03-.61-.88-2.24-1.02-3.22-.06-2.47,2.41-5,4.76-7.51,7.13-.12.11-.26.21-.38.32-.54.48-.97.5-1.5-.12-.99-1.16-2.06-2.25-3.12-3.35-.84-.87-2.19-.91-2.98-.13-.83.81-.86,1.95,0,2.85,1.8,1.9,3.61,3.78,5.44,5.65.84.85,1.92.86,2.74.06,2.06-1.98,4.1-3.97,6.18-5.93,1.35-1.27,2.75-2.48,4.12-3.73.43-.39.77-.84.38-1.46Zm-14.13,31.92c1.86,1.78,2.37,1.84,4.36-.16,1.62-1.64,3.31-3.21,4.99-4.79,1.28-1.19,2.61-2.32,3.89-3.51.72-.66,1.5-1.37,1.19-2.48-.32-1.17-1.71-2.29-3.27-.93-2.38,2.08-4.69,4.24-7.02,6.39-.64.59-1.22,1.25-2.07,2.13-.25-.41-.4-.73-.62-.98-1-1.1-2.03-2.18-3.05-3.27-.84-.89-2.53-1.12-3.2-.24-.71.93-.79,2.11.05,2.98,1.37,1.42,2.75,2.82,4.13,4.23.21.21.42.42.63.63Zm21.67-1.79c.42.13.84.37,1.26.37,10.04.02,20.08.02,30.13-.02.5,0,1.23-.29,1.44-.67.35-.62.36-1.43.51-2.16-.13-.15-.26-.29-.38-.44-.81-.25-1.61-.71-2.42-.71-9.73-.05-19.46-.03-29.19-.03-.47,0-.96.02-1.4.15-.72.21-1.34.58-1.37,1.48-.03.87-.05,1.71,1.01,2.03.07.1.14.19.2.29.07-.1.14-.19.21-.29Zm15.96-42.64s0,.01,0,.02c5.18,0,10.37,0,15.55,0,.93,0,1.79-.81,1.84-1.73.09-1.7-.54-2.3-2.49-2.31-10.06-.05-20.12-.03-30.18-.01-1.42,0-2.12.75-2.1,2.1.02,1.22.79,1.94,2.14,1.94,5.08,0,10.16,0,15.24,0Zm-.21,21.52h4.8c3.54,0,7.09,0,10.63,0,1.16,0,2.1-.67,2.17-1.52.11-1.36-.19-2.27-1.72-2.38-.4-.03-.79-.15-1.19-.15-7.7,0-15.4,0-23.1,0-2.21,0-4.43-.02-6.64.01-1.45.02-2.14.74-2.12,2.09.02,1.23.8,1.95,2.15,1.95,5.01,0,10.02,0,15.03,0Z"/>
        <path class="cls-1" d="m62.81,21.09c.58,1.08,1.28,2.12,1.69,3.26.26.74.85,1.03,1.26,1.55-.03.05-.06.1-.09.16.04-.04.08-.09.12-.13.53.15,1.06.41,1.59.42,2.28.05,4.56.02,6.91.02v13.36h-34.84v-13.36c.31,0,.63,0,.95,0,2.08,0,4.16,0,6.24,0,1.21,0,1.77-.43,2.06-1.62.54-2.3,1.95-3.93,3.8-5.31.92-.68,1.93-.74,2.96-.81,1.05-.06,2.1-.04,3.65-.06.72.43,1.93,1.16,3.13,1.89.19.21.38.42.57.62Z"/>
        <path class="cls-1" d="m62.81,21.09c-.19-.21-.38-.42-.57-.62.19.21.38.42.57.62Z"/>
        <path class="cls-1" d="m36.21,43.56c-.06-.06-.11-.11-.17-.17.06.06.11.11.17.17Z"/>
        <path class="cls-1" d="m46.04,55.87c0-.14,0-.27,0-.41.11.08.22.17.32.25l-.32.16Z"/>
        <path class="cls-1" d="m86.95,104.19c-.13-.15-.26-.29-.38-.44.13.15.26.29.38.44Z"/>
        <path class="cls-1" d="m53.2,106.67c.14,0,.27,0,.41,0-.07.1-.14.19-.21.29-.07-.1-.14-.19-.2-.29Z"/>
        <path class="cls-1" d="m46.07,76.54c0-.07,0-.14,0-.21.13.01.26.02.39.03,0,.04,0,.07.01.11l-.4.07Z"/>
        <path class="cls-1" d="m65.78,25.93s-.08.09-.12.13c.03-.05.06-.1.09-.16,0,0,.02.03.02.03Z"/>
      </g>
    </g>
  </g>
</svg>