<?xml version="1.0" encoding="UTF-8"?>
<svg id="Layer_2" data-name="Layer 2" xmlns="http://www.w3.org/2000/svg" viewBox="0 0 104.66 104.9">
  <defs>
    <style>
      .cls-1 {
        fill: #fdfeec;
      }
    </style>
  </defs>
  <g id="Layer_1-2" data-name="Layer 1">
    <g>
      <path class="cls-1" d="m17.25,77.79c-.72-1.41-1.43-2.83-2.17-4.23-1.41-2.66-2.35-5.5-2.95-8.43-.42-2.07-.61-4.19-.84-6.3-.18-1.72-.26-3.46-.39-5.19.19-.21.38-.42.57-.63-.38-.98-.23-1.92-.02-2.93.65-3.08,1.3-6.15,2.49-9.07.57-1.4,1.22-2.77,1.83-4.15.14-.19.28-.38.43-.57.13-.29.26-.57.39-.86.14-.19.28-.38.43-.57,1.21-1.67,2.43-3.33,3.63-5.01.26-.36.44-.78.65-1.17.28-.2.55-.41.83-.61,1.97-1.77,3.98-3.49,5.89-5.33.96-.93,2.09-1.63,3.23-2.18,2.96-1.41,5.99-2.76,9.1-3.78,2.3-.75,4.77-.96,7.17-1.4,1.08-.2,2.17-.37,3.43-.59,2.04.18,4.32.38,6.59.57.2.06.41.12.61.17,2.3.51,4.67.85,6.89,1.59,2.48.83,4.83,2.03,7.23,3.06.33.14.68.24,1.02.36.02.06.07.11.13.14,1.73,1.23,3.47,2.43,5.17,3.7.74.55,1.37,1.23,2.05,1.85.34.34.68.68,1.02,1.02,1.37,1.51,2.73,3.02,4.1,4.52,0,.12,0,.25,0,.37.48.54.95,1.09,1.43,1.63-.09.06-.18.12-.28.19.15.14.3.29.44.43.28.34.57.68.85,1.02-.09.06-.18.12-.27.19l.44.43c.37.87.69,1.77,1.13,2.6,1.09,2.06,1.87,4.23,2.4,6.49.08.34.37.62.56.93l-.29.21c.16.07.33.14.49.2.02.98-.06,1.99.1,2.95.21,1.26.67,2.47.9,3.72.08.42-.3.91-.33,1.38-.06.95.06,1.92-.03,2.86-.24,2.53-.46,5.06-.85,7.56-.4,2.56-1.47,4.93-2.42,7.33-1.56,3.93-3.81,7.43-6.6,10.6-.13.15-.23.32-.35.48-.05.05-.1.11-.16.16-.29.33-.58.65-.93,1.04,1.27,1.75,2.53,3.51,3.82,5.24,2.1,2.81,4.22,5.6,6.32,8.41.39.52.75,1.09.99,1.69.22.57.55,1.24-.18,1.76-.09.07-.19.27-.16.35.54,1.35-.55,1.82-1.36,2.29-1.03.6-2.25.92-3.28.1-1-.79-1.93-1.71-2.7-2.72-2.95-3.88-5.82-7.82-8.74-11.72-.17-.23-.55-.31-.66-.37-7.83,5.83-16.59,8.05-26.11,7.81-.14-.05-.28-.11-.41-.16-1.16-.08-2.32-.17-3.47-.25-.12-.12-.23-.23-.35-.35-.09.11-.18.22-.27.33-2.39-.68-4.77-1.36-7.16-2.04-.14-.05-.29-.11-.43-.16-.42-.15-.84-.31-1.25-.46-.12-.07-.24-.14-.35-.22-2.43-1.36-4.91-2.64-7.27-4.11-.76-.47-1.04-.19-1.39.27-1.65,2.19-3.24,4.42-4.89,6.6-1.7,2.25-3.41,4.5-5.18,6.69-.98,1.21-2.34,1.46-3.82,1.14-.26-.06-.52-.09-.78-.13-.14-.19-.29-.37-.43-.56-1.72-1.49-1.95-3.57-.51-5.48,3.27-4.34,6.58-8.66,9.87-12.98.24-.32.46-.65.61-.85-1.71-2.26-3.38-4.46-5.04-6.67-.05-.07-.11-.14-.16-.21Zm38.44-20.07c.13-.85.38-1.7.39-2.55.03-6.96.03-13.91,0-20.87,0-.68-.13-1.41-.38-2.04-.71-1.78-2.52-2.63-4.5-2.12-1.19.31-2.67,1.71-2.66,3.61.03,6.51.03,13.02.06,19.54,0,.97-.16,1.74-.82,2.57-2.86,3.65-5.62,7.39-8.35,11.14-.81,1.12-1.65,2.3-2.09,3.58-.48,1.41.85,3.33,2.14,3.94,1.43.68,3.03.51,4.11-.72,1.06-1.2,1.95-2.54,2.92-3.82,2.88-3.81,5.75-7.62,8.63-11.44l.57-.83Z"/>
      <path class="cls-1" d="m71.66,8.24c-.06-1.47.74-2.43,1.77-3.36,1.56-1.42,3.41-2.35,5.17-3.44,1.02-.64,2.03-.57,3.03-.82,1.34-.33,2.75-.62,4.11-.53,2.04.14,4.06.79,6.1.9,1.3.07,2.26.73,3.2,1.31,2.29,1.43,4.31,3.19,6.03,5.33,1.83,2.27,2.77,4.94,3.39,7.64.44,1.94.09,4.09-.06,6.14-.23,3.16-1.59,5.92-3.37,8.47-.52.74-1.16,1.42-1.81,2.05-1.86,1.82-3.68,1.64-5.24.1-7.11-7.02-14.16-14.09-21.19-21.19-.63-.64-.93-1.61-1.38-2.43.09-.05.18-.1.26-.14Z"/>
      <path class="cls-1" d="m5.54,32.16c-1.81-1.8-3.05-3.99-4.29-6.19-.06-.26-.11-.51-.17-.77-.13-.55-.27-1.1-.4-1.65-.14-.13-.28-.26-.42-.39-.01-.64.05-1.3-.05-1.93-.64-3.96.24-7.62,2.05-11.13.32-.61.39-1.35.75-1.93.3-.49.85-.82,1.28-1.24.24-.24.45-.5.67-.76.34-.34.68-.68,1.02-1.02,1.75-1.58,3.75-2.77,5.91-3.67,1.23-.51,2.48-1.02,3.76-1.36.76-.2,1.61-.09,2.41-.08,1.34,0,2.66.21,3.94.6.4.12.62-.95,1.01-.09-.03.05-.06.11-.09.16.04-.04.08-.08.12-.13,1.9.84,3.87,1.56,5.69,2.55,1.18.64,2.2,1.61,3.18,2.55.44.42.6,1.14.89,1.72v1.43c-.12,1.45-1.26,2.28-2.13,3.17-6.52,6.62-13.12,13.16-19.68,19.74-1.01,1.01-2.28,1.24-3.6,1.41-.14-.05-.29-.11-.43-.16-.2-.08-.39-.17-.59-.25-.14-.06-.28-.11-.42-.17h0c-.14-.14-.27-.27-.41-.41Z"/>
      <path class="cls-1" d="m81.68,27.27c-.34-.34-.68-.68-1.02-1.02.24-.09.55-.32.71-.24.55.27.62.74.31,1.26Z"/>
      <path class="cls-1" d="m32.8,8.82v-1.43c.26.24.52.48.78.72-.26.24-.52.48-.78.72Z"/>
      <path class="cls-1" d="m5.98,5.15c-.34.34-.68.68-1.02,1.02-.24-.78-.05-.97,1.02-1.02Z"/>
      <path class="cls-1" d="m22.12,28.06c-.28.2-.55.41-.83.61.28-.2.55-.41.83-.61Z"/>
      <path class="cls-1" d="m88.4,36.04c-.15-.14-.3-.28-.44-.43.09-.06.18-.12.27-.19.06.2.12.41.17.61Z"/>
      <path class="cls-1" d="m87.38,34.41c-.15-.14-.3-.29-.44-.43.09-.06.18-.12.28-.19.06.2.11.41.17.61Z"/>
      <path class="cls-1" d="m45.46,96.98c.09-.11.18-.22.27-.33.12.12.23.23.35.35-.21,0-.41,0-.62-.01Z"/>
      <path class="cls-1" d="m58.15,15.54c-.2-.06-.41-.12-.61-.17.2.06.41.12.61.17Z"/>
      <path class="cls-1" d="m.26,23.15c.14.13.28.26.42.39-.14-.13-.28-.26-.42-.39Z"/>
      <path class="cls-1" d="m1.08,25.2c.06.26.11.51.17.77-.06-.26-.11-.51-.17-.77Z"/>
      <path class="cls-1" d="m11.47,53.01c-.19.21-.38.42-.57.63.19-.21.38-.42.57-.63Z"/>
      <path class="cls-1" d="m16.2,36.29c-.14.19-.28.38-.43.57.14-.19.28-.38.43-.57Z"/>
      <path class="cls-1" d="m17.02,34.86c-.14.19-.28.38-.43.57.14-.19.28-.38.43-.57Z"/>
      <path class="cls-1" d="m12.49,103.99c.14.19.29.37.43.56-.14-.19-.29-.37-.43-.56Z"/>
      <path class="cls-1" d="m92.7,46.48c-.16-.07-.33-.14-.49-.2l.29-.21c.07.14.14.27.2.41Z"/>
      <path class="cls-1" d="m5.54,32.16c.14.14.27.28.41.42-.14-.14-.27-.28-.41-.42Z"/>
      <path class="cls-1" d="m49.55,97.25c.14.05.28.11.41.16-.14-.05-.28-.11-.41-.16Z"/>
      <path class="cls-1" d="m6.96,32.98c.14.05.29.11.43.16-.14-.05-.29-.11-.43-.16Z"/>
      <path class="cls-1" d="m37.86,94.79c.14.05.29.11.43.16-.14-.05-.29-.11-.43-.16Z"/>
      <path class="cls-1" d="m5.95,32.57c.14.06.28.11.42.17-.14-.06-.28-.11-.42-.17Z"/>
      <path class="cls-1" d="m85.78,32.16c0-.12,0-.25,0-.37,0,.12,0,.25,0,.37Z"/>
      <path class="cls-1" d="m17.25,77.79c.05.07.11.14.16.21-.05-.07-.11-.14-.16-.21Z"/>
      <path class="cls-1" d="m82.96,83.52c.05-.05.1-.11.16-.16-.05.05-.1.11-.16.16Z"/>
      <path class="cls-1" d="m73.43,20.69c-.06-.03-.11-.07-.13-.14.04.05.09.09.13.14Z"/>
      <path class="cls-1" d="m36.26,94.11c.12.07.24.14.35.22-.12-.07-.24-.14-.35-.22Z"/>
      <path class="cls-1" d="m23.05.58s-.08.08-.12.13c.03-.05.06-.11.09-.16,0,0,.03.03.03.03Z"/>
    </g>
  </g>
</svg>